<svg xmlns="http://www.w3.org/2000/svg" xml:space="preserve" viewBox="123.52 122.77 339.02 313.48"><path fill="#231f20" d="m461.514 298.355-18.049-55.587c.008.025.011.051.019.076-.009-.029-.014-.058-.022-.087-.001-.002-.001-.003-.001-.005v-.002l-35.83-110.31c-1.96-5.811-7.353-9.711-13.536-9.663-6.201.032-11.446 3.857-13.364 9.748l-34.01 104.705H239.408l-34.074-104.712c-1.916-5.886-7.162-9.71-13.362-9.742h-.075c-6.105 0-11.509 3.876-13.49 9.752l-35.732 110.211-.005.014v.003c-.009.028-.013.056-.022.084.008-.025.011-.051.019-.076l-18.115 55.591c-2.725 8.392.232 17.512 7.36 22.697L288.328 434.7c.023.017.049.027.072.044.067.048.132.097.2.142-.064-.043-.124-.09-.187-.134 0 0 0-.001-.001-.001.01.008.022.013.033.02.009.006.018.01.027.016.001.001.002.002.004.003.242.168.493.322.753.463.036.02.068.045.104.064.001 0 .001.001.002.001.022.011.042.025.064.036.017.008.035.013.051.021.012.006.025.01.037.015.029.014.061.023.09.038.136.065.279.118.419.175.131.054.258.117.392.164.006.002.011.005.017.007.022.008.042.019.065.027.028.01.055.021.083.03.011.003.022.005.033.008.035.011.073.016.108.026.013.004.028.006.042.01.188.057.383.098.577.141.076.017.149.041.226.055.011.002.021.006.033.008.025.005.048.014.074.018.041.007.081.02.123.026.033.005.067.003.1.008.006.001.011 0 .017.001h.005c.369.053.743.09 1.124.09h.013c.382 0 .756-.037 1.126-.09h.004c.006-.001.012 0 .018-.001.033-.005.068-.003.101-.008.042-.007.082-.019.124-.026.025-.004.048-.013.073-.018.011-.002.021-.006.032-.008.078-.015.153-.039.231-.056.191-.042.383-.083.57-.139.013-.004.026-.005.039-.009.037-.011.075-.016.112-.027.011-.004.023-.005.034-.008.029-.009.057-.021.085-.031.022-.008.042-.019.064-.027.006-.002.011-.005.017-.007.142-.05.276-.116.415-.173.129-.054.261-.102.387-.162.031-.015.064-.024.094-.039.012-.006.026-.01.038-.016.017-.008.035-.013.052-.022.023-.012.045-.026.067-.037 0 0 .001 0 .001-.001.037-.019.07-.046.107-.066.258-.14.508-.293.749-.46.019-.013.041-.023.061-.037.005-.004.011-.006.016-.01.023-.017.05-.028.073-.045l156.44-113.65c7.124-5.182 10.081-14.302 7.356-22.694zm-67.32-155.581 30.68 94.456h-61.36l30.68-94.456zm25.307 110.428-12.519 16.041-92.334 118.307 43.677-134.348h61.176zM285.428 430.707c.008.024.021.046.029.071-.008-.025-.021-.047-.029-.071zm-14.008-43.149L166.624 253.202h61.18l43.616 134.356zm-79.545-244.785 30.737 94.457h-61.36l30.623-94.457zm-50.571 165.36c-1.516-1.103-2.144-3.05-1.563-4.838l13.466-41.325 98.67 126.502-110.573-80.339zm146.749 126.356c-.031-.025-.061-.052-.091-.078-.006-.005-.012-.012-.019-.017-.06-.05-.119-.101-.177-.153-.114-.099-.226-.2-.333-.306.009.008.019.015.028.023.012.011.025.02.037.031.229.219.47.425.722.615.003.002.005.005.008.007.012.009.022.02.034.03-.069-.05-.141-.098-.209-.152zm4.975-32.097-25.665-79.059-22.766-70.131h96.933l-48.502 149.19zm5.253 31.849c-.06.052-.118.104-.179.154-.007.006-.014.013-.021.019-.031.025-.06.052-.09.077-.066.053-.138.101-.207.152.012-.009.022-.021.035-.029l.006-.006c.252-.19.492-.394.719-.613.009-.009.02-.016.029-.024.012-.011.025-.02.036-.031-.106.103-.217.203-.328.301zM444.766 308.13l-110.557 80.317 98.703-126.467 13.412 41.307c.582 1.796-.045 3.743-1.558 4.843z" style="--darkreader-inline-fill: #000000;" data-darkreader-inline-fill=""></path></svg>